<mxfile host="app.diagrams.net" modified="2023-10-17T16:41:54.620Z" agent="Mozilla/5.0 (Macintosh; Intel Mac OS X 10.15; rv:109.0) Gecko/20100101 Firefox/118.0" etag="qQ3xu_P1p15rTjtIUijZ" version="22.0.4" type="device">
  <diagram name="Page-1" id="PtbTHUMTUIfh84WbkgZB">
    <mxGraphModel dx="1475" dy="985" grid="1" gridSize="10" guides="1" tooltips="1" connect="1" arrows="1" fold="1" page="1" pageScale="1" pageWidth="850" pageHeight="1100" math="0" shadow="0">
      <root>
        <mxCell id="0" />
        <mxCell id="1" parent="0" />
        <mxCell id="P-q5lw0AguM5Vt7-3L7y-13" style="edgeStyle=orthogonalEdgeStyle;rounded=0;orthogonalLoop=1;jettySize=auto;html=1;exitX=1;exitY=0.5;exitDx=0;exitDy=0;entryX=0;entryY=0.5;entryDx=0;entryDy=0;strokeColor=#7d7d7d;" parent="1" source="P-q5lw0AguM5Vt7-3L7y-2" target="P-q5lw0AguM5Vt7-3L7y-5" edge="1">
          <mxGeometry relative="1" as="geometry" />
        </mxCell>
        <mxCell id="P-q5lw0AguM5Vt7-3L7y-2" value="Entity Record Operation (create, update or delete)" style="rounded=0;whiteSpace=wrap;html=1;" parent="1" vertex="1">
          <mxGeometry x="50" y="170" width="120" height="60" as="geometry" />
        </mxCell>
        <mxCell id="P-q5lw0AguM5Vt7-3L7y-15" style="edgeStyle=orthogonalEdgeStyle;rounded=0;orthogonalLoop=1;jettySize=auto;html=1;exitX=1;exitY=0.5;exitDx=0;exitDy=0;exitPerimeter=0;entryX=0;entryY=0.5;entryDx=0;entryDy=0;strokeColor=#8A8A8A;" parent="1" source="P-q5lw0AguM5Vt7-3L7y-4" target="P-q5lw0AguM5Vt7-3L7y-10" edge="1">
          <mxGeometry relative="1" as="geometry" />
        </mxCell>
        <mxCell id="P-q5lw0AguM5Vt7-3L7y-4" value="Database" style="shape=cylinder3;whiteSpace=wrap;html=1;boundedLbl=1;backgroundOutline=1;size=10;" parent="1" vertex="1">
          <mxGeometry x="390" y="160" width="60" height="80" as="geometry" />
        </mxCell>
        <mxCell id="P-q5lw0AguM5Vt7-3L7y-7" style="edgeStyle=orthogonalEdgeStyle;rounded=0;orthogonalLoop=1;jettySize=auto;html=1;exitX=0.25;exitY=1;exitDx=0;exitDy=0;entryX=0.25;entryY=0;entryDx=0;entryDy=0;strokeColor=#8A8A8A;" parent="1" source="P-q5lw0AguM5Vt7-3L7y-5" target="P-q5lw0AguM5Vt7-3L7y-6" edge="1">
          <mxGeometry relative="1" as="geometry" />
        </mxCell>
        <mxCell id="P-q5lw0AguM5Vt7-3L7y-5" value="WebHook Rules" style="rounded=0;whiteSpace=wrap;html=1;fillColor=#dae8fc;strokeColor=#6c8ebf;" parent="1" vertex="1">
          <mxGeometry x="220" y="170" width="120" height="60" as="geometry" />
        </mxCell>
        <mxCell id="P-q5lw0AguM5Vt7-3L7y-8" style="edgeStyle=orthogonalEdgeStyle;rounded=0;orthogonalLoop=1;jettySize=auto;html=1;exitX=0.75;exitY=0;exitDx=0;exitDy=0;entryX=0.75;entryY=1;entryDx=0;entryDy=0;dashed=1;strokeColor=#8A8A8A;" parent="1" source="P-q5lw0AguM5Vt7-3L7y-6" target="P-q5lw0AguM5Vt7-3L7y-5" edge="1">
          <mxGeometry relative="1" as="geometry" />
        </mxCell>
        <mxCell id="P-q5lw0AguM5Vt7-3L7y-6" value="Pre-Event" style="rounded=0;whiteSpace=wrap;html=1;fillColor=#1ba1e2;fontColor=#ffffff;strokeColor=#006EAF;" parent="1" vertex="1">
          <mxGeometry x="220" y="290" width="120" height="60" as="geometry" />
        </mxCell>
        <mxCell id="P-q5lw0AguM5Vt7-3L7y-9" style="edgeStyle=orthogonalEdgeStyle;rounded=0;orthogonalLoop=1;jettySize=auto;html=1;exitX=0.25;exitY=1;exitDx=0;exitDy=0;entryX=0.25;entryY=0;entryDx=0;entryDy=0;strokeColor=#8A8A8A;" parent="1" source="P-q5lw0AguM5Vt7-3L7y-10" target="P-q5lw0AguM5Vt7-3L7y-12" edge="1">
          <mxGeometry relative="1" as="geometry" />
        </mxCell>
        <mxCell id="P-q5lw0AguM5Vt7-3L7y-17" style="edgeStyle=orthogonalEdgeStyle;rounded=0;orthogonalLoop=1;jettySize=auto;html=1;exitX=1;exitY=0.5;exitDx=0;exitDy=0;strokeColor=#8A8A8A;" parent="1" source="P-q5lw0AguM5Vt7-3L7y-10" target="P-q5lw0AguM5Vt7-3L7y-16" edge="1">
          <mxGeometry relative="1" as="geometry" />
        </mxCell>
        <mxCell id="P-q5lw0AguM5Vt7-3L7y-10" value="WebHook Rules" style="rounded=0;whiteSpace=wrap;html=1;fillColor=#dae8fc;strokeColor=#6c8ebf;" parent="1" vertex="1">
          <mxGeometry x="500" y="170" width="120" height="60" as="geometry" />
        </mxCell>
        <mxCell id="P-q5lw0AguM5Vt7-3L7y-11" style="edgeStyle=orthogonalEdgeStyle;rounded=0;orthogonalLoop=1;jettySize=auto;html=1;exitX=0.75;exitY=0;exitDx=0;exitDy=0;entryX=0.75;entryY=1;entryDx=0;entryDy=0;dashed=1;strokeColor=#8A8A8A;" parent="1" source="P-q5lw0AguM5Vt7-3L7y-12" target="P-q5lw0AguM5Vt7-3L7y-10" edge="1">
          <mxGeometry relative="1" as="geometry" />
        </mxCell>
        <mxCell id="P-q5lw0AguM5Vt7-3L7y-12" value="Post-Event" style="rounded=0;whiteSpace=wrap;html=1;fillColor=#1ba1e2;fontColor=#ffffff;strokeColor=#006EAF;" parent="1" vertex="1">
          <mxGeometry x="500" y="290" width="120" height="60" as="geometry" />
        </mxCell>
        <mxCell id="P-q5lw0AguM5Vt7-3L7y-14" style="edgeStyle=orthogonalEdgeStyle;rounded=0;orthogonalLoop=1;jettySize=auto;html=1;exitX=1;exitY=0.5;exitDx=0;exitDy=0;entryX=0;entryY=0.5;entryDx=0;entryDy=0;entryPerimeter=0;strokeColor=#8A8A8A;" parent="1" source="P-q5lw0AguM5Vt7-3L7y-5" target="P-q5lw0AguM5Vt7-3L7y-4" edge="1">
          <mxGeometry relative="1" as="geometry" />
        </mxCell>
        <mxCell id="P-q5lw0AguM5Vt7-3L7y-16" value="Return to caller" style="shape=parallelogram;perimeter=parallelogramPerimeter;whiteSpace=wrap;html=1;fixedSize=1;" parent="1" vertex="1">
          <mxGeometry x="650" y="170" width="120" height="60" as="geometry" />
        </mxCell>
        <mxCell id="P-q5lw0AguM5Vt7-3L7y-18" value="" style="shape=flexArrow;endArrow=classic;startArrow=classic;html=1;rounded=0;entryX=0.5;entryY=1;entryDx=0;entryDy=0;endWidth=24;endSize=4.67;width=26;strokeColor=#8A8A8A;" parent="1" target="P-q5lw0AguM5Vt7-3L7y-6" edge="1">
          <mxGeometry width="100" height="100" relative="1" as="geometry">
            <mxPoint x="280" y="470" as="sourcePoint" />
            <mxPoint x="470" y="470" as="targetPoint" />
            <Array as="points">
              <mxPoint x="280" y="410" />
            </Array>
          </mxGeometry>
        </mxCell>
        <mxCell id="P-q5lw0AguM5Vt7-3L7y-19" value="&lt;div&gt;You WebHook&amp;nbsp;&lt;/div&gt;&lt;div&gt;scripts and web server&lt;/div&gt;" style="strokeWidth=2;html=1;shape=mxgraph.flowchart.multi-document;whiteSpace=wrap;fillColor=#d5e8d4;strokeColor=#82b366;" parent="1" vertex="1">
          <mxGeometry x="190" y="470" width="194" height="100" as="geometry" />
        </mxCell>
        <mxCell id="P-q5lw0AguM5Vt7-3L7y-20" value="HTTP/S" style="text;strokeColor=none;align=center;fillColor=none;html=1;verticalAlign=middle;whiteSpace=wrap;rounded=0;rotation=-90;fontSize=17;fontColor=#878787;" parent="1" vertex="1">
          <mxGeometry x="250" y="398" width="60" height="30" as="geometry" />
        </mxCell>
        <mxCell id="rmJAQe6AANeAVADWF6aW-1" value="" style="shape=flexArrow;endArrow=classic;startArrow=classic;html=1;rounded=0;entryX=0.5;entryY=1;entryDx=0;entryDy=0;endWidth=24;endSize=4.67;width=26;strokeColor=#8A8A8A;" edge="1" parent="1">
          <mxGeometry width="100" height="100" relative="1" as="geometry">
            <mxPoint x="560" y="470" as="sourcePoint" />
            <mxPoint x="560" y="350" as="targetPoint" />
            <Array as="points">
              <mxPoint x="560" y="410" />
            </Array>
          </mxGeometry>
        </mxCell>
        <mxCell id="rmJAQe6AANeAVADWF6aW-2" value="&lt;div&gt;You WebHook&amp;nbsp;&lt;/div&gt;&lt;div&gt;scripts and web server&lt;/div&gt;" style="strokeWidth=2;html=1;shape=mxgraph.flowchart.multi-document;whiteSpace=wrap;fillColor=#d5e8d4;strokeColor=#82b366;" vertex="1" parent="1">
          <mxGeometry x="470" y="470" width="194" height="100" as="geometry" />
        </mxCell>
        <mxCell id="rmJAQe6AANeAVADWF6aW-3" value="HTTP/S" style="text;strokeColor=none;align=center;fillColor=none;html=1;verticalAlign=middle;whiteSpace=wrap;rounded=0;rotation=-90;fontSize=17;fontColor=#878787;" vertex="1" parent="1">
          <mxGeometry x="530" y="398" width="60" height="30" as="geometry" />
        </mxCell>
      </root>
    </mxGraphModel>
  </diagram>
</mxfile>
